<svg width="18" height="20" viewBox="0 0 18 20" fill="none" xmlns="http://www.w3.org/2000/svg">
<g id="Layer_1" clip-path="url(#clip0_2946_7505)">
<g id="_6cD6cw.tif">
<path id="Vector" d="M15.6247 20H1.45479C1.444 19.9913 1.43423 19.9774 1.4219 19.9743C0.444997 19.7287 0.000484283 19.1598 -2.96045e-05 18.1521C-2.96045e-05 15.7399 -2.96045e-05 13.3277 -2.96045e-05 10.9155C-2.96045e-05 7.84655 -0.00157127 4.77762 0.000998171 1.70919C0.00202595 0.74154 0.714788 0.00462499 1.65829 0.00308333C4.49032 -0.00102778 7.32287 0.00205555 10.1549 0C10.3435 0 10.5008 0.0611527 10.6441 0.179347C12.6534 1.83509 14.6591 3.49547 16.6782 5.13939C16.9691 5.37629 17.0883 5.63992 17.0878 6.00015C17.0831 8.80495 17.0852 11.6098 17.0852 14.4146C17.0852 15.7275 17.0909 17.041 17.0821 18.354C17.077 19.1526 16.524 19.8016 15.7424 19.9599C15.7018 19.9681 15.6638 19.9866 15.6242 20H15.6247ZM0.825274 9.99409C0.825274 10.2295 0.825274 10.4653 0.825274 10.7007C0.825274 13.2059 0.826302 15.7106 0.823733 18.2158C0.823733 18.5426 0.912635 18.8191 1.18808 19.0164C1.37256 19.1485 1.58326 19.1634 1.80063 19.1634C4.83257 19.1624 7.86451 19.1629 10.897 19.1629C12.3811 19.1629 13.8647 19.1649 15.3488 19.1618C15.9387 19.1608 16.2635 18.8309 16.2635 18.2471C16.2635 14.3005 16.2619 10.3538 16.2681 6.40715C16.2681 6.20828 16.2136 6.16254 16.0215 6.16408C14.5733 6.17231 13.1252 6.16974 11.6765 6.1682C10.6369 6.16717 9.93239 5.46006 9.93085 4.41944C9.92931 3.30635 9.92469 2.19276 9.93548 1.07968C9.93753 0.874123 9.88666 0.820679 9.67905 0.821193C7.08237 0.828901 4.48518 0.826332 1.88851 0.826332C1.11511 0.826332 0.82476 1.11359 0.82476 1.88032C0.82476 4.58491 0.82476 7.29001 0.82476 9.9946L0.825274 9.99409ZM10.7752 1.33816C10.7628 1.4024 10.7556 1.42244 10.7556 1.44248C10.7551 2.44097 10.7495 3.43997 10.7572 4.43845C10.7613 4.95953 11.1159 5.29818 11.6462 5.29973C12.8729 5.30332 14.0995 5.30127 15.3262 5.29973C15.3673 5.29973 15.4274 5.33159 15.4551 5.24679C13.9058 3.95283 12.3533 2.65629 10.7752 1.33868V1.33816Z" fill="#33404F" stroke="#33404F" stroke-width="0.5" stroke-linejoin="round"/>
<path id="Vector_2" d="M11.1703 15.0271C10.5007 15.0271 9.83163 15.0292 9.16203 15.0261C8.85935 15.0246 8.69593 14.8791 8.6908 14.6196C8.68617 14.394 8.81413 14.2394 9.03818 14.207C9.11527 14.1957 9.19441 14.1952 9.27252 14.1952C10.5403 14.1946 11.8075 14.1952 13.0753 14.1952C13.1107 14.1952 13.1467 14.1941 13.1822 14.1957C13.4962 14.2075 13.6611 14.3575 13.6539 14.6237C13.6467 14.8807 13.4813 15.0251 13.1786 15.0266C12.6231 15.0297 12.0676 15.0277 11.512 15.0277C11.398 15.0277 11.2844 15.0277 11.1703 15.0277V15.0271Z" fill="#33404F" stroke="#33404F" stroke-width="0.5" stroke-linejoin="round"/>
<path id="Vector_3" d="M11.1725 9.2329C11.8431 9.2329 12.5137 9.23084 13.1844 9.23393C13.4521 9.23496 13.5893 9.33002 13.6412 9.53352C13.7142 9.81925 13.5307 10.0541 13.2157 10.0577C12.6736 10.0639 12.1314 10.0597 11.5893 10.0597C10.783 10.0597 9.97668 10.0592 9.1709 10.0597C8.96226 10.0597 8.78857 10.0053 8.71405 9.78584C8.61282 9.48727 8.79885 9.23752 9.13955 9.23496C9.81737 9.2293 10.4952 9.23341 11.173 9.2329H11.1725Z" fill="#33404F" stroke="#33404F" stroke-width="0.5" stroke-linejoin="round"/>
<path id="Vector_4" d="M4.46987 14.7752C4.95087 14.3959 5.42108 14.0249 5.89129 13.6544C5.9139 13.6369 5.93548 13.6179 5.95809 13.6004C6.19499 13.419 6.42881 13.4232 6.58555 13.6117C6.75308 13.8132 6.71916 14.0886 6.49511 14.2711C5.97505 14.6945 5.44215 15.1025 4.93289 15.5378C4.43287 15.9648 4.15435 15.9725 3.82906 15.3369C3.69287 15.0707 3.52381 14.822 3.37478 14.5619C3.22626 14.3024 3.27046 14.0742 3.48475 13.9473C3.71754 13.8096 3.93594 13.8759 4.09371 14.1375C4.21858 14.3446 4.33935 14.5542 4.46936 14.7752H4.46987Z" fill="#33404F" stroke="#33404F" stroke-width="0.5" stroke-linejoin="round"/>
<path id="Vector_5" d="M6.68611 4.61027C6.69022 4.73771 6.62752 4.85231 6.5155 4.94275C5.905 5.43454 5.29707 5.92942 4.68246 6.41607C4.43785 6.6098 4.14956 6.55173 3.98768 6.28605C3.77647 5.93918 3.56989 5.58974 3.36793 5.23772C3.2225 4.98386 3.27543 4.75159 3.49589 4.62877C3.72046 4.50338 3.93886 4.57224 4.08994 4.82045C4.18656 4.97872 4.28574 5.13546 4.3695 5.30042C4.43631 5.43197 4.48769 5.45818 4.61565 5.35335C5.06736 4.98284 5.52986 4.62568 5.98927 4.26442C6.13522 4.14931 6.29761 4.11025 6.46668 4.20327C6.61519 4.28498 6.6897 4.41859 6.68559 4.61027H6.68611Z" fill="#33404F" stroke="#33404F" stroke-width="0.5" stroke-linejoin="round"/>
<path id="Vector_6" d="M6.68672 9.34795C6.69031 9.49544 6.62916 9.61055 6.51662 9.70099C5.90561 10.1933 5.29716 10.6882 4.68255 11.1759C4.44051 11.3675 4.14811 11.3089 3.98778 11.0453C3.77657 10.6979 3.56999 10.3485 3.36803 9.99597C3.22311 9.74262 3.27758 9.50829 3.49804 9.3865C3.72364 9.26213 3.9405 9.33151 4.0921 9.58177C4.19179 9.74622 4.29303 9.91015 4.38244 10.0808C4.44462 10.199 4.49344 10.2118 4.6029 10.1229C5.06797 9.74519 5.54126 9.37776 6.01147 9.00673C6.142 8.90344 6.28691 8.83664 6.44468 8.92451C6.60449 9.01341 6.68363 9.16295 6.68723 9.34847L6.68672 9.34795Z" fill="#33404F" stroke="#33404F" stroke-width="0.5" stroke-linejoin="round"/>
</g>
</g>
<defs>
<clipPath id="clip0_2946_7505">
<rect width="17.0878" height="20" fill="#33404F"/>
</clipPath>
</defs>
</svg>
