<svg width="10" height="10" viewBox="0 0 10 10" fill="none" xmlns="http://www.w3.org/2000/svg">
<path id="&#244;&#128;&#132;&#168;" d="M4.70508 0.389648C4.19531 0.389648 3.85547 0.74121 3.85547 1.26855L3.85547 5.77246L3.9082 7.04394L2.73047 5.68457L1.41211 4.37207C1.25391 4.21387 1.05469 4.1084 0.802735 4.1084C0.345704 4.1084 4.51286e-07 4.44824 4.09282e-07 4.92871C3.89817e-07 5.15137 0.087891 5.35644 0.263672 5.53809L4.07813 9.35254C4.23633 9.5166 4.4707 9.61035 4.70508 9.61035C4.93359 9.61035 5.17383 9.5166 5.33203 9.35254L9.14063 5.53809C9.31641 5.35645 9.4043 5.15137 9.4043 4.92871C9.4043 4.44824 9.05859 4.1084 8.60156 4.1084C8.34375 4.1084 8.14453 4.21387 7.99219 4.37207L6.67383 5.68457L5.49609 7.04394L5.55469 5.77246L5.55469 1.26855C5.55469 0.741211 5.20899 0.389648 4.70508 0.389648Z" fill="#FF4F6A"/>
</svg>
