<svg width="16" height="17" viewBox="0 0 16 17" fill="none" xmlns="http://www.w3.org/2000/svg">
<g id="Icon pack Variants">
<path id="Union" fill-rule="evenodd" clip-rule="evenodd" d="M2.59806 12.1945C5.31809 14.1528 7.27345 14.5445 8.76424 14.4962C9.76888 14.4637 10.7233 14.3491 11.7022 13.9543C12.6803 13.5599 13.6266 12.9089 14.6652 11.8808C14.9627 11.5863 14.9529 11.1181 14.6433 10.8351C14.3337 10.5521 13.8416 10.5614 13.544 10.8559C12.6054 11.7851 11.8271 12.2974 11.0953 12.5925C10.3645 12.8872 9.62409 12.9883 8.71135 13.0179C7.68636 13.0511 6.16125 12.8283 3.84558 11.2329L4.72002 11.2324C5.16111 11.2321 5.51843 10.9101 5.51812 10.5131C5.51782 10.1161 5.16 9.79445 4.71891 9.79472L2.86355 9.79588C1.83536 9.79653 1.00204 10.5466 1.00131 11.472L1 13.1493C0.999688 13.5463 1.35701 13.8684 1.79809 13.8686C2.23918 13.8689 2.597 13.5473 2.59731 13.1503L2.59806 12.1945ZM13.4027 3.84969C13.403 3.45269 13.7608 3.13108 14.2019 3.13136C14.643 3.13164 15.0003 3.4537 15 3.8507L14.9987 5.52802C14.998 6.45344 14.1646 7.20347 13.1365 7.20412L11.2811 7.20528C10.84 7.20555 10.4822 6.88394 10.4819 6.48694C10.4816 6.08994 10.8389 5.76789 11.28 5.76761L12.1544 5.76706C9.83875 4.17172 8.31364 3.94891 7.28865 3.9821C6.37591 4.01165 5.63554 4.11277 4.90466 4.40752C4.17294 4.7026 3.39457 5.21492 2.45596 6.14406C2.15845 6.43857 1.66629 6.44789 1.3567 6.16487C1.04711 5.88185 1.03732 5.41367 1.33483 5.11916C2.37339 4.09107 3.31974 3.4401 4.29778 3.04568C5.27666 2.65093 6.23112 2.53633 7.23576 2.5038C8.72655 2.45553 10.6819 2.84715 13.4019 4.80549L13.4027 3.84969Z" fill="white"/>
</g>
</svg>
