<svg width="117" height="98" viewBox="0 0 117 98" fill="none" xmlns="http://www.w3.org/2000/svg">
<path d="M23.5884 16.0703C32.2134 6.64844 44.7759 0.554688 58.5572 0.554688C83.3072 0.554688 103.932 19.6328 106.698 43.3984H113.26C116.87 43.3984 117.854 46.0703 115.745 48.9766L104.588 64.6797C102.854 67.0234 100.276 67.0234 98.5884 64.6797L87.4322 48.9297C85.3697 46.0234 86.354 43.3984 89.9165 43.3984H96.9947C94.4165 24.6953 78.3853 10.1172 58.5572 10.1172C47.354 10.1172 37.229 14.8984 30.2447 22.4922C27.9947 24.6484 25.2759 24.6484 23.3541 22.9141C21.4791 21.2734 21.3384 18.3203 23.5884 16.0703ZM56.6822 71.6172C55.229 71.6172 54.104 70.6797 53.8228 69.3203L52.8384 65.1016C52.3228 64.9609 51.7603 64.7734 51.104 64.3984L47.4009 66.6484C46.1822 67.3984 44.7759 67.3984 43.7447 66.2734L41.2134 63.6953C40.229 62.7109 40.1353 61.3047 40.8853 60.0391L43.0884 56.2891C42.854 55.7734 42.6197 55.2578 42.3853 54.7422L38.1665 53.7578C36.7603 53.3828 35.8697 52.3047 35.8697 50.8516V47.1484C35.8697 45.7891 36.7603 44.7109 38.1665 44.3828L42.3384 43.3984C42.5728 42.7891 42.8072 42.1797 43.0415 41.7109L40.6978 37.9609C39.9478 36.7422 40.1822 35.2891 41.2134 34.3516L43.7447 31.7734C44.7759 30.7422 46.229 30.5547 47.3072 31.2578L51.0103 33.6016C51.5728 33.2266 52.1822 33.0859 52.8384 32.8516L53.8228 28.6797C54.104 27.3203 55.229 26.3359 56.6822 26.3359H60.4322C61.8384 26.3359 62.9634 27.2734 63.2915 28.6797L64.2759 32.8984C64.8384 33.1328 65.4009 33.2266 66.0572 33.6016L69.7603 31.2578C70.9322 30.5078 72.3384 30.7422 73.3228 31.7734L75.9947 34.3516C76.979 35.2422 77.1197 36.7891 76.3697 37.9609L74.0728 41.7109C74.3072 42.1797 74.4947 42.6953 74.7759 43.3984L78.9009 44.3828C80.3072 44.7109 81.2447 45.7422 81.2447 47.1484V50.8516C81.2447 52.3047 80.354 53.3828 78.9009 53.7578L74.729 54.7422C74.4947 55.2578 74.354 55.7734 74.0259 56.2891L76.229 59.9922C76.979 61.3047 76.8853 62.6641 75.9009 63.6953L73.3228 66.2734C72.2447 67.3984 70.8853 67.3984 69.7134 66.6484L66.0572 64.3984C65.4947 64.6797 64.8384 64.9609 64.2759 65.1016L63.2915 69.3203C62.9634 70.7266 61.8384 71.6172 60.4322 71.6172H56.6822ZM1.3228 49.0234L12.5259 33.3203C14.2134 30.9766 16.7916 30.9766 18.4791 33.3203L29.6353 49.0703C31.6978 51.9766 30.7134 54.6016 27.1509 54.6016H20.1197C22.6978 73.3516 38.7759 87.8828 58.5572 87.8828C69.854 87.8828 79.979 83.1016 86.9165 75.4609C89.2134 73.3047 91.8853 73.2578 93.8072 74.9922C95.6822 76.6797 95.8228 79.6328 93.6197 81.8828C84.9478 91.3516 72.3853 97.4453 58.5572 97.4453C33.8072 97.4453 13.1822 78.3672 10.4634 54.6016H3.80718C0.197801 54.6016 -0.739699 51.9297 1.3228 49.0234ZM58.5572 56.1484C62.4478 56.1484 65.729 52.9609 65.729 49.0234C65.729 45.0859 62.4478 41.7578 58.5572 41.8047C54.5728 41.8516 51.4322 45.0859 51.4322 49.0234C51.4322 52.9609 54.5728 56.1484 58.5572 56.1484Z" fill="url(#paint0_linear_2964_9925)"/>
<defs>
<linearGradient id="paint0_linear_2964_9925" x1="49" y1="34.5" x2="85.5" y2="87" gradientUnits="userSpaceOnUse">
<stop stop-color="#0D4C60"/>
<stop offset="1" stop-color="#0D4C60" stop-opacity="0"/>
</linearGradient>
</defs>
</svg>
