<svg width="23" height="20" viewBox="0 0 23 20" fill="none" xmlns="http://www.w3.org/2000/svg">
<g id="Layer_1" clip-path="url(#clip0_2946_7725)">
<path id="Vector" d="M4.8847 19.956C5.96134 19.8211 6.97784 19.2572 7.67217 18.4081C8.40462 17.5129 8.72857 16.3804 8.58267 15.2195C8.43618 14.0473 7.85499 13.0183 6.94628 12.3237C6.03578 11.6273 4.88649 11.3302 3.70921 11.4882C1.69587 11.7586 0.175002 13.3988 0.0118392 15.4769C-0.14001 17.4064 1.18435 19.2714 3.09229 19.8152C3.27391 19.8667 3.46387 19.9069 3.64788 19.9454C3.73184 19.9631 3.81581 19.9809 3.89977 19.9998H4.7269C4.77454 19.9661 4.82694 19.9613 4.86446 19.9578C4.8716 19.9572 4.87815 19.9566 4.8853 19.9554L4.8847 19.956ZM4.30113 18.843C4.29636 18.843 4.2916 18.843 4.28624 18.843C3.45196 18.8395 2.66711 18.5093 2.07639 17.9141C1.48567 17.3188 1.16232 16.5324 1.16589 15.6993C1.17363 13.9881 2.58613 12.5994 4.31661 12.5994H4.32733C6.05781 12.6053 7.46078 14.0088 7.45542 15.7283C7.45304 16.5662 7.12373 17.3508 6.52944 17.9365C5.93574 18.5217 5.14493 18.8436 4.30053 18.8436L4.30113 18.843Z" fill="#33404F"/>
<path id="Vector_2" d="M10.9437 2.28433C10.849 2.42989 10.8264 2.6074 10.88 2.77071C10.9741 3.05531 11.1891 3.17661 11.5982 3.17661C12.4842 3.17661 13.3697 3.17661 14.2552 3.17661C14.9764 3.17661 15.7046 3.17661 16.4365 3.17661C18.2813 3.17661 20.1511 3.1778 21.9995 3.18312C22.0019 3.18312 22.0043 3.18312 22.0067 3.18312C22.4634 3.18312 22.7111 3.05176 22.857 2.73165V2.48077C22.7254 2.15652 22.4884 2.01807 22.0698 2.01807C22.068 2.01807 22.0656 2.01807 22.0638 2.01807C19.4348 2.02635 16.7622 2.02576 14.1772 2.02517C13.331 2.02517 12.4848 2.02398 11.6381 2.02517C11.6148 2.02517 11.5916 2.02517 11.5684 2.02517C11.4951 2.02458 11.4255 2.02339 11.3576 2.03108C11.1885 2.04943 11.0378 2.14291 10.9443 2.2867L10.9437 2.28433Z" fill="#33404F"/>
<path id="Vector_3" d="M22.0764 13.46C22.0764 13.46 22.0723 13.46 22.0699 13.46C19.448 13.4682 16.7826 13.4677 14.2041 13.4665C13.3413 13.4665 12.4784 13.4659 11.6161 13.4665H11.5762C11.5006 13.4665 11.4291 13.4659 11.3589 13.473C11.1874 13.4901 11.0355 13.5819 10.942 13.725C10.848 13.8688 10.8247 14.0457 10.8795 14.2096C10.9748 14.4978 11.1826 14.6155 11.5971 14.6155C12.5963 14.6155 13.5955 14.6155 14.5948 14.6155C15.1944 14.6155 15.7988 14.6155 16.4068 14.6155C18.2921 14.6155 20.2078 14.6161 22.0997 14.6203H22.1032C22.501 14.6203 22.7339 14.4712 22.8577 14.1375V13.9298C22.7315 13.5966 22.504 13.46 22.077 13.46H22.0764Z" fill="#33404F"/>
<path id="Vector_4" d="M4.31264 0H4.31026C3.16156 0.000591698 2.08016 0.448507 1.26494 1.26091C0.44972 2.07272 0.00251033 3.14724 0.00489228 4.28745C0.00965617 6.6359 1.93903 8.54945 4.3049 8.553C4.30728 8.553 4.30907 8.553 4.31145 8.553C5.46431 8.553 6.54571 8.10982 7.35736 7.30452C8.16841 6.49922 8.61503 5.42588 8.61503 4.28094C8.61503 3.13482 8.16722 2.05852 7.35557 1.25085C6.54393 0.444366 5.46312 0 4.31264 0ZM7.45621 4.27384C7.458 5.10813 7.13346 5.89273 6.54274 6.48206C5.95201 7.07198 5.16419 7.39741 4.32455 7.39919H4.318C2.58633 7.39919 1.17324 6.0087 1.16669 4.29573C1.16371 3.46321 1.48765 2.67744 2.07897 2.08278C2.67088 1.48812 3.45574 1.15855 4.29061 1.15559H4.30311C5.14751 1.15559 5.93891 1.47806 6.53202 2.06384C7.12631 2.65081 7.45442 3.4354 7.45621 4.27384Z" fill="#33404F"/>
<path id="Vector_5" d="M17.4495 16.8228C15.7952 16.8192 14.113 16.8204 12.4861 16.821H11.4934C11.3053 16.821 11.1582 16.8719 11.0421 16.9742C10.8664 17.1304 10.8045 17.3742 10.8855 17.5955C10.9742 17.8375 11.1755 17.9718 11.4524 17.9724C12.1783 17.9748 12.9161 17.9742 13.6295 17.9742H14.4667H15.1259C15.8947 17.9742 16.6641 17.9748 17.4328 17.9742C17.8395 17.9736 18.0944 17.7571 18.0974 17.4097C18.0986 17.2476 18.045 17.1074 17.942 17.0038C17.8253 16.8861 17.6543 16.8239 17.4495 16.8234V16.8228Z" fill="#33404F"/>
<path id="Vector_6" d="M17.4113 5.38672H17.4084C16.059 5.38909 14.687 5.38909 13.3603 5.38909C12.757 5.38909 12.1532 5.38909 11.55 5.38909C11.488 5.38909 11.4148 5.39027 11.3439 5.39914C11.1296 5.42636 10.9777 5.54411 10.892 5.74825C10.8181 5.92516 10.8342 6.1151 10.936 6.26835C11.045 6.43225 11.2308 6.52692 11.4458 6.5287C12.1562 6.53461 12.8791 6.53343 13.5776 6.53225C13.8712 6.53225 14.1653 6.53106 14.4589 6.53106H14.9448C14.9573 6.53166 14.9699 6.53166 14.9824 6.53166C15.2217 6.53166 15.4617 6.53166 15.7011 6.53284C16.2895 6.53402 16.898 6.53521 17.4959 6.52929C17.7186 6.52692 17.9157 6.42278 18.0229 6.2506C18.1235 6.08906 18.1307 5.8938 18.0432 5.71511C17.93 5.48494 17.7406 5.38672 17.4102 5.38672H17.4113Z" fill="#33404F"/>
<path id="Vector_7" d="M5.72386 16.3082C5.57737 16.1502 5.44458 16.0189 5.31774 15.9053C5.27486 15.8668 5.2171 15.8053 5.21591 15.7224C5.21531 15.6396 5.2701 15.5775 5.31774 15.5325C5.45768 15.4017 5.62084 15.2449 5.76912 15.0739C5.92513 14.8952 5.95253 14.6414 5.8376 14.442C5.71552 14.2296 5.53509 14.132 5.28201 14.1426C5.06823 14.1521 4.93365 14.287 4.77763 14.4432L4.75917 14.4615C4.55194 14.6686 4.44833 14.7722 4.31375 14.7722C4.18095 14.7722 4.07913 14.671 3.87666 14.4704L3.83557 14.4296C3.79746 14.3911 3.76173 14.3556 3.72422 14.3213C3.59023 14.2006 3.43421 14.1396 3.28296 14.1396C3.14183 14.1396 3.00546 14.1923 2.8947 14.2988C2.65651 14.5284 2.66127 14.8722 2.90721 15.1355C3.06084 15.3 3.19007 15.4278 3.31393 15.5378C3.35621 15.5757 3.41278 15.6355 3.41397 15.7171C3.41456 15.7982 3.36157 15.8585 3.30976 15.9065C3.1585 16.0467 2.99891 16.1976 2.85778 16.3627C2.697 16.5508 2.6714 16.7573 2.78097 16.9774C2.88577 17.1887 3.05549 17.2934 3.29904 17.2993C3.3038 17.2993 3.30916 17.2993 3.31393 17.2993C3.45267 17.2993 3.57356 17.2526 3.67479 17.1591C3.84629 17.0017 3.98683 16.8674 4.11664 16.7236C4.15892 16.6774 4.22442 16.6159 4.31256 16.6159C4.3995 16.6159 4.46381 16.6751 4.51026 16.7271C4.64067 16.8721 4.77942 17.0035 4.89852 17.1135C5.15934 17.3549 5.51425 17.3614 5.74172 17.1295C5.96682 16.8999 5.95967 16.5621 5.72386 16.3076V16.3082Z" fill="#33404F"/>
<path id="Vector_8" d="M2.43663 4.03971C2.32647 4.27461 2.36577 4.49295 2.55454 4.68762C2.87908 5.02252 3.20719 5.345 3.51327 5.6438C3.81459 5.93729 4.13079 5.94024 4.42675 5.6509C4.96923 5.12133 5.51232 4.5817 6.0417 4.04681C6.17509 3.9119 6.24774 3.74859 6.24596 3.58706C6.24417 3.43973 6.18343 3.30423 6.07029 3.19417C5.83448 2.96637 5.4879 2.98175 5.22648 3.23145C5.10084 3.35156 4.97578 3.477 4.8549 3.5983C4.73461 3.71901 4.61016 3.84327 4.4851 3.96338C4.4458 4.00125 4.40709 4.04977 4.36601 4.10065C4.26358 4.22905 4.14687 4.37461 3.97834 4.37757C3.80863 4.37994 3.69072 4.23379 3.58771 4.1048C3.54721 4.05332 3.50851 4.00539 3.4692 3.96752C3.32093 3.82611 3.18158 3.70895 2.98626 3.70895C2.9815 3.70895 2.97614 3.70895 2.97138 3.70895H2.969C2.7177 3.71013 2.53846 3.82137 2.43663 4.03912V4.03971Z" fill="#33404F"/>
</g>
<defs>
<clipPath id="clip0_2946_7725">
<rect width="22.8571" height="20" fill="white"/>
</clipPath>
</defs>
</svg>
