<svg width="48" height="48" viewBox="0 0 48 48" fill="none" xmlns="http://www.w3.org/2000/svg">
<path id="Vector" d="M33.695 28.1968C33.6602 28.2647 33.6642 28.3419 33.6466 28.414C33.5482 28.8202 33.3319 29.1419 32.9785 29.3524C32.5555 29.6042 32.1224 29.8373 31.6953 30.0814C31.122 30.4087 30.5452 30.73 29.97 31.0532C29.38 31.3848 28.7886 31.7147 28.1987 32.0468C27.7535 32.2969 27.3068 32.5456 26.8631 32.7983C26.253 33.1463 25.6384 33.485 25.0228 33.8222C24.7505 33.9715 24.455 34.0292 24.1475 33.9864C23.9468 33.9586 23.7608 33.8814 23.5833 33.7815C22.6561 33.2596 21.7288 32.7386 20.8011 32.2177C19.4831 31.4774 18.1647 30.7372 16.8467 29.9974C16.4892 29.7967 16.1287 29.6011 15.7753 29.3936C15.2181 29.0667 14.9549 28.5664 15.0069 27.9157C15.0467 27.421 15.2918 27.0349 15.7092 26.777C15.981 26.6087 16.2654 26.462 16.5412 26.3003C16.6717 26.2236 16.8094 26.1598 16.9385 26.0805C16.9632 26.0656 16.9899 26.0646 17.0312 26.0589C16.9838 26.0285 16.9475 26.0018 16.9082 25.9801C16.5311 25.7675 16.1519 25.558 15.7763 25.3423C15.3301 25.0865 15.0598 24.6973 15.0094 24.1774C14.9499 23.5653 15.1773 23.0712 15.6886 22.7402C16.0133 22.5301 16.3596 22.3551 16.6959 22.1641C16.7635 22.1255 16.8311 22.0869 16.8991 22.0488C16.937 22.0277 16.9727 22.0025 17.0353 22.0051C16.9072 21.9196 16.7842 21.8614 16.6662 21.7945C16.3556 21.618 16.0395 21.4501 15.7349 21.2622C15.2 20.9328 14.9529 20.4365 15.0074 19.8059C15.0528 19.2829 15.323 18.8896 15.7717 18.6323C16.1933 18.3903 16.6183 18.1561 17.0418 17.9183C17.7638 17.5121 18.4853 17.1054 19.2074 16.6998C19.88 16.322 20.5526 15.9441 21.2257 15.5668C22.0193 15.1215 22.8134 14.6757 23.6075 14.2309C23.8374 14.1022 24.0799 14.042 24.3461 14.0415C24.631 14.041 24.8841 14.1198 25.1297 14.2546C25.6969 14.5671 26.2581 14.8899 26.8248 15.2023C27.4359 15.539 28.0399 15.889 28.648 16.2319C29.318 16.6097 29.9891 16.986 30.6602 17.3623C31.3626 17.7561 32.0624 18.1546 32.7683 18.5406C33.0768 18.7095 33.338 18.921 33.5079 19.2382C33.5553 19.3262 33.5926 19.4188 33.6229 19.5146C33.6526 19.6083 33.6622 19.7056 33.6738 19.8126C33.6834 19.7854 33.6894 19.7684 33.6955 19.7509V20.0973C33.6803 20.1164 33.6758 20.139 33.6723 20.1627C33.6052 20.6409 33.3713 21.0131 32.9649 21.2561C32.554 21.5021 32.1365 21.7374 31.7135 21.9613C31.7024 21.967 31.6908 21.9726 31.6903 21.9953C31.9252 22.1101 32.1516 22.2475 32.379 22.3824C32.6135 22.5214 32.8681 22.6228 33.0854 22.7942C33.2901 22.9558 33.4504 23.1504 33.5573 23.3908C33.6234 23.5396 33.6632 23.6951 33.6718 23.8716C33.6829 23.8413 33.6889 23.8243 33.6955 23.8068V24.1403C33.6783 24.1661 33.6758 24.1965 33.6723 24.2258C33.6612 24.3128 33.6415 24.3982 33.6148 24.4811C33.4852 24.8863 33.2235 25.1745 32.86 25.3753C32.4753 25.5874 32.0936 25.8046 31.711 26.0198C31.7024 26.0244 31.6958 26.0327 31.6862 26.0409C31.9585 26.1948 32.2278 26.3446 32.4945 26.4985C32.6977 26.6154 32.9145 26.7075 33.1005 26.8578C33.3894 27.0915 33.579 27.385 33.6546 27.7541C33.6652 27.8061 33.6672 27.8596 33.6743 27.9229C33.6844 27.8951 33.6899 27.8791 33.6955 27.8632V28.1968H33.695ZM15.9795 19.9532C15.9845 20.0366 15.9911 20.1025 16.0228 20.1663C16.0879 20.2986 16.1907 20.3856 16.3158 20.4546C16.8049 20.7253 17.2934 20.9976 17.781 21.2715C18.4758 21.6612 19.1695 22.0534 19.8643 22.4436C20.5077 22.805 21.152 23.1643 21.7949 23.5262C22.5552 23.9535 23.3156 24.3818 24.0754 24.8101C24.2372 24.9012 24.4036 24.913 24.5685 24.8281C24.7571 24.7308 24.9406 24.6237 25.1256 24.5197C25.826 24.1275 26.5268 23.7352 27.2266 23.3419C27.87 22.9806 28.5128 22.6187 29.1562 22.2573C29.7905 21.9011 30.4252 21.5464 31.0585 21.1891C31.5254 20.9261 31.9923 20.6625 32.4567 20.3938C32.8131 20.1879 32.7405 19.7344 32.5086 19.5547C32.4214 19.4868 32.3236 19.4389 32.2283 19.3854C30.7363 18.5473 29.2444 17.7088 27.7525 16.8707C26.7149 16.288 25.6767 15.7068 24.6401 15.123C24.4364 15.0083 24.2413 15.0077 24.0396 15.1272C23.8132 15.2605 23.5828 15.3871 23.3534 15.5158C22.3727 16.0666 21.392 16.6169 20.4114 17.1677C19.3813 17.7463 18.3512 18.3244 17.3211 18.903C16.9622 19.1048 16.6027 19.3066 16.2452 19.5115C16.0728 19.6103 15.9865 19.7663 15.98 19.9537L15.9795 19.9532ZM15.9795 28.0609C15.982 28.084 15.983 28.1139 15.9881 28.1432C16.0218 28.3388 16.1423 28.4624 16.3067 28.5545C17.0333 28.9602 17.7593 29.3679 18.4848 29.7756C19.5099 30.3506 20.5344 30.9261 21.5589 31.5016C22.2502 31.8898 22.9409 32.2779 23.6317 32.666C23.7618 32.7391 23.8949 32.8076 24.0214 32.8869C24.2387 33.0233 24.4485 33.013 24.6673 32.8869C24.9683 32.7144 25.2683 32.5409 25.5718 32.3726C26.1436 32.056 26.7103 31.7302 27.2806 31.41C27.5685 31.2483 27.8589 31.0919 28.1458 30.9287C28.657 30.6373 29.1748 30.3578 29.6861 30.0654C30.3466 29.6875 31.0131 29.32 31.6772 28.9488C31.9358 28.8042 32.196 28.6621 32.4506 28.5097C32.7032 28.3584 32.7733 28.0464 32.6225 27.7911C32.5605 27.6861 32.4637 27.6228 32.3624 27.5656C31.8254 27.264 31.2879 26.9628 30.751 26.6612C30.7348 26.6519 30.7131 26.6437 30.7056 26.6288C30.6854 26.5907 30.6668 26.6061 30.641 26.6205C30.4076 26.7502 30.1792 26.8887 29.9442 27.0159C29.4748 27.2697 29.0145 27.5404 28.5466 27.7978C27.9169 28.1443 27.2932 28.501 26.6659 28.8526C26.1456 29.145 25.6248 29.4363 25.1034 29.7277C24.5947 30.0124 24.0875 30.0155 23.5782 29.7256C23.1103 29.4595 22.6399 29.1985 22.1705 28.9349C20.8102 28.171 19.4504 27.4071 18.0906 26.6432C18.0432 26.6164 17.9978 26.5814 17.9559 26.6514C17.9494 26.6627 17.9322 26.6679 17.9191 26.6751C17.6564 26.8213 17.3938 26.967 17.1316 27.1137C16.8396 27.2769 16.5477 27.439 16.2578 27.6053C16.0879 27.7026 15.9835 27.8462 15.9785 28.0603L15.9795 28.0609ZM15.981 23.9972C15.9881 24.2299 16.0965 24.3833 16.281 24.4868C16.879 24.8214 17.4764 25.1565 18.0744 25.4916C18.7072 25.8458 19.3425 26.1953 19.9717 26.5562C20.3201 26.7559 20.6736 26.9459 21.0225 27.144C21.6023 27.4725 22.1831 27.7983 22.7655 28.1226C23.1824 28.3548 23.5994 28.587 24.0119 28.8268C24.2327 28.9555 24.4379 28.9622 24.6623 28.8325C25.1483 28.552 25.6424 28.2858 26.1315 28.0104C26.732 27.6717 27.333 27.3335 27.9345 26.9963C28.358 26.759 28.7785 26.5165 29.2046 26.2849C29.5258 26.1104 29.8419 25.9256 30.1616 25.748C30.6763 25.4623 31.182 25.1606 31.7009 24.8826C31.9525 24.7478 32.201 24.6057 32.4476 24.4605C32.6452 24.3437 32.737 24.1223 32.6886 23.9015C32.6493 23.7229 32.5323 23.6096 32.381 23.5252C31.84 23.222 31.2995 22.9188 30.7585 22.6151C30.6879 22.5142 30.6179 22.5806 30.5508 22.6187C29.255 23.346 27.9592 24.0734 26.6634 24.8013C26.1376 25.0968 25.6132 25.3959 25.0848 25.6872C24.5962 25.9565 24.1026 25.9662 23.61 25.6908C22.953 25.3233 22.2946 24.9599 21.6396 24.5887C20.9685 24.2083 20.2959 23.8299 19.6218 23.4552C19.1131 23.1721 18.6074 22.8833 18.1001 22.5965C18.0512 22.5687 18.0043 22.5255 17.9585 22.6007C17.9534 22.6084 17.9408 22.6109 17.9312 22.6161C17.6943 22.7484 17.4573 22.8797 17.2213 23.0125C16.8971 23.1952 16.5739 23.3795 16.2502 23.5633C16.0783 23.6606 15.9901 23.8104 15.981 23.9978V23.9972Z" fill="#FFF" stroke="#FFF" stroke-width="0.5"/>
<path id="Vector_2" d="M24.4803 14C24.392 14.0216 24.3043 14.0196 24.2161 14H24.4803Z" fill="#FFF"/>
</svg>
