<svg width="10" height="10" viewBox="0 0 10 10" fill="none" xmlns="http://www.w3.org/2000/svg">
<path id="&#244;&#128;&#132;&#168;" d="M4.69922 9.61035C5.20898 9.61035 5.54883 9.25879 5.54883 8.73145V4.22754L5.49609 2.95605L6.67383 4.31543L7.99219 5.62793C8.15039 5.78613 8.34961 5.8916 8.60156 5.8916C9.05859 5.8916 9.4043 5.55176 9.4043 5.07129C9.4043 4.84863 9.31641 4.64355 9.14062 4.46191L5.32617 0.647461C5.16797 0.483398 4.93359 0.389648 4.69922 0.389648C4.4707 0.389648 4.23047 0.483398 4.07227 0.647461L0.263672 4.46191C0.0878906 4.64355 0 4.84863 0 5.07129C0 5.55176 0.345703 5.8916 0.802734 5.8916C1.06055 5.8916 1.25977 5.78613 1.41211 5.62793L2.73047 4.31543L3.9082 2.95605L3.84961 4.22754V8.73145C3.84961 9.25879 4.19531 9.61035 4.69922 9.61035Z" fill="#47E1AC"/>
</svg>
