<svg width="107" height="98" viewBox="0 0 107 98" fill="none" xmlns="http://www.w3.org/2000/svg">
<path d="M3.77667 39.4609H10.386C14.8392 17.3828 34.5735 0.554688 57.8235 0.554688C84.3548 0.554688 106.245 22.4922 106.245 48.9766C106.245 75.5078 84.3548 97.3984 57.8235 97.3984C42.636 97.3984 28.4329 89.7578 19.761 78.4141C17.6985 75.9297 18.1204 72.9297 20.2767 71.3828C22.5267 69.7422 25.2923 70.4453 27.1673 72.6484C34.1985 81.9297 45.2142 87.8359 57.8235 87.8828C79.386 87.9297 96.7298 70.5391 96.7298 48.9766C96.7298 27.4141 79.386 10.1172 57.8235 10.1172C39.5423 10.1172 24.3079 22.5391 20.0892 39.4609H26.886C30.4954 39.4609 31.386 42.2266 29.4642 44.8984L18.1204 60.6953C16.5735 62.8516 14.136 62.8984 12.5423 60.6953L1.19854 44.9453C-0.81708 42.1797 0.12042 39.4609 3.77667 39.4609ZM56.0892 21.7891C58.3392 21.7891 60.1673 23.6172 60.1673 25.8672V49.9609L71.0423 64.6328C72.5423 66.6484 72.4017 69.1328 70.4798 70.4453C68.4642 71.8984 66.0267 71.5234 64.386 69.3203L53.1829 54.5547C52.386 53.4766 52.011 52.4453 52.011 51.3672V25.8672C52.011 23.6172 53.7923 21.7891 56.0892 21.7891Z" fill="url(#paint0_linear_2964_9924)"/>
<defs>
<linearGradient id="paint0_linear_2964_9924" x1="53" y1="39.5" x2="92" y2="88.5" gradientUnits="userSpaceOnUse">
<stop stop-color="#0D4C60"/>
<stop offset="1" stop-color="#0D4C60" stop-opacity="0"/>
</linearGradient>
</defs>
</svg>
