<svg width="16" height="17" viewBox="0 0 16 17" fill="none" xmlns="http://www.w3.org/2000/svg">
<g id="Icon">
<path id="Union" fill-rule="evenodd" clip-rule="evenodd" d="M2.41573 8.78394C2.41573 8.78399 2.41573 8.78397 2.41573 8.78389C2.41579 8.78251 2.41656 8.76181 2.42765 8.7184C2.43915 8.6734 2.45932 8.61342 2.49209 8.53845C2.5582 8.38719 2.66435 8.20042 2.81451 7.98756C3.11466 7.56211 3.55836 7.07808 4.10515 6.62175C5.21248 5.69763 6.63356 4.97541 8.0029 4.97541C9.37484 4.97541 10.7951 5.68883 11.899 6.60591C12.4444 7.05905 12.8864 7.54084 13.1852 7.96692C13.5096 8.42943 13.5843 8.71076 13.5843 8.78394C13.5843 8.83879 13.5244 9.07911 13.207 9.48149C12.915 9.8517 12.4785 10.2649 11.9339 10.6517C10.8373 11.4305 9.40329 12.0322 8.00662 12.0245C6.60763 12.0169 5.16955 11.4037 4.06912 10.6219C3.52266 10.2337 3.08433 9.82117 2.79111 9.45412C2.6445 9.27059 2.54399 9.11069 2.48289 8.98231C2.45274 8.91896 2.43505 8.86925 2.42532 8.83319C2.41664 8.80098 2.41581 8.78523 2.41574 8.78378L2.41573 8.78367V8.78394ZM8.0029 3.5C6.1917 3.5 4.46527 4.43103 3.22021 5.4701C2.59081 5.99537 2.0571 6.57041 1.67389 7.1136C1.48238 7.38506 1.32035 7.66001 1.20372 7.92686C1.091 8.18476 1 8.48167 1 8.78394C1 9.36604 1.33791 9.94099 1.70308 10.3981C2.09644 10.8905 2.63937 11.3918 3.27168 11.841C4.52877 12.7341 6.23821 13.4903 7.99918 13.4999C9.76247 13.5096 11.4731 12.7644 12.7311 11.8709C13.3639 11.4215 13.9072 10.9173 14.3006 10.4184C14.6687 9.9517 15 9.37141 15 8.78394C15 8.21478 14.6861 7.60667 14.3282 7.09633C13.9447 6.54954 13.4108 5.97507 12.7815 5.45224C11.5358 4.41737 9.81149 3.5 8.0029 3.5ZM8.00008 10.959C9.30322 10.959 10.3596 9.85804 10.3596 8.49997C10.3596 7.14189 9.30322 6.04096 8.00008 6.04096C6.69693 6.04096 5.64053 7.14189 5.64053 8.49997C5.64053 9.85804 6.69693 10.959 8.00008 10.959ZM8.9439 8.49997C8.9439 9.04319 8.52133 9.48357 8.00008 9.48357C7.47882 9.48357 7.05626 9.04319 7.05626 8.49997C7.05626 7.95674 7.47882 7.51636 8.00008 7.51636C8.52133 7.51636 8.9439 7.95674 8.9439 8.49997Z" fill="#7C7B7B"/>
</g>
</svg>
