<svg width="16" height="16" viewBox="0 0 16 16" fill="none" xmlns="http://www.w3.org/2000/svg">
<g id="Icon pack Variants">
<path id="Union" fill-rule="evenodd" clip-rule="evenodd" d="M6.70211 4.67071C6.43232 5.65613 5.65618 6.43228 4.67077 6.70209V9.29791C5.65617 9.56772 6.43229 10.3439 6.7021 11.3292H9.2979C9.56771 10.3438 10.3439 9.56768 11.3293 9.29789V6.70212C10.3439 6.43232 9.56769 5.65615 9.29789 4.67071H6.70211ZM6.7021 3.13413C6.36529 1.90401 5.23943 1 3.90244 1C2.29947 1 1 2.29947 1 3.90244C1 5.23946 1.90404 6.36533 3.13419 6.70212V9.29789C1.90404 9.63468 1 10.7605 1 12.0976C1 13.7005 2.29947 15 3.90244 15C5.23945 15 6.36531 14.096 6.70211 12.8658H9.29789C9.63469 14.096 10.7606 15 12.0976 15C13.7005 15 15 13.7005 15 12.0976C15 10.7606 14.096 9.63473 12.8659 9.29791V6.70209C14.096 6.36528 15 5.23943 15 3.90244C15 2.29947 13.7005 1 12.0976 1C10.7606 1 9.63471 1.90401 9.2979 3.13413H6.7021ZM5.26829 3.90244C5.26829 4.65678 4.65678 5.26829 3.90244 5.26829C3.1481 5.26829 2.53659 4.65678 2.53659 3.90244C2.53659 3.1481 3.1481 2.53659 3.90244 2.53659C4.65678 2.53659 5.26829 3.1481 5.26829 3.90244ZM13.4634 3.90244C13.4634 4.65678 12.8519 5.26829 12.0976 5.26829C11.3432 5.26829 10.7317 4.65678 10.7317 3.90244C10.7317 3.1481 11.3432 2.53659 12.0976 2.53659C12.8519 2.53659 13.4634 3.1481 13.4634 3.90244ZM12.0976 13.4634C12.8519 13.4634 13.4634 12.8519 13.4634 12.0976C13.4634 11.3432 12.8519 10.7317 12.0976 10.7317C11.3432 10.7317 10.7317 11.3432 10.7317 12.0976C10.7317 12.8519 11.3432 13.4634 12.0976 13.4634ZM5.26829 12.0976C5.26829 12.8519 4.65678 13.4634 3.90244 13.4634C3.1481 13.4634 2.53659 12.8519 2.53659 12.0976C2.53659 11.3432 3.1481 10.7317 3.90244 10.7317C4.65678 10.7317 5.26829 11.3432 5.26829 12.0976Z" fill="white"/>
</g>
</svg>
