<svg width="16" height="17" viewBox="0 0 16 17" fill="none" xmlns="http://www.w3.org/2000/svg">
<g id="Icon pack Variants">
<path id="Vector 65 (Stroke)" fill-rule="evenodd" clip-rule="evenodd" d="M10.1561 3.05555L3.72603 3.05556C3.58985 3.05556 3.47945 3.17164 3.47945 3.31482V13.6852C3.47945 13.8284 3.58985 13.9444 3.72603 13.9444H5.28767V10.9197C5.28767 9.91745 6.06044 9.10493 7.0137 9.10493H8.9863C9.93956 9.10493 10.7123 9.91745 10.7123 10.9197V13.9444H12.274C12.4102 13.9444 12.5205 13.8284 12.5205 13.6852V6.09835C12.5205 6.03947 12.5015 5.98236 12.4665 5.93639L10.3486 3.15286C10.3018 3.09136 10.231 3.05555 10.1561 3.05555ZM9.23288 13.9444V10.9197C9.23288 10.7766 9.12248 10.6605 8.9863 10.6605H7.0137C6.87752 10.6605 6.76712 10.7766 6.76712 10.9197V13.9444H9.23288ZM3.72603 1.50001L10.1561 1.5C10.6804 1.5 11.1763 1.75061 11.5039 2.18111L13.6218 4.96464C13.8666 5.28643 14 5.68625 14 6.09835V13.6852C14 14.6875 13.2272 15.5 12.274 15.5H3.72603C2.77277 15.5 2 14.6875 2 13.6852V3.31482C2 2.31253 2.77277 1.50001 3.72603 1.50001Z" fill="#FAFCFE"/>
</g>
</svg>
