<svg width="17" height="17" viewBox="0 0 17 17" fill="none" xmlns="http://www.w3.org/2000/svg">
<g id="Icon pack Variants">
<path id="Union" fill-rule="evenodd" clip-rule="evenodd" d="M2.5 11.3973C2.5 10.9321 2.87134 10.5551 3.32941 10.5551C3.78748 10.5551 4.15882 10.9321 4.15882 11.3973V12.5348C4.15882 12.6899 4.2826 12.8155 4.43529 12.8155H12.5647C12.7174 12.8155 12.8412 12.6899 12.8412 12.5348V11.3973C12.8412 10.9321 13.2125 10.5551 13.6706 10.5551C14.1287 10.5551 14.5 10.9321 14.5 11.3973V12.5348C14.5 13.6202 13.6335 14.5 12.5647 14.5H4.43529C3.36646 14.5 2.5 13.6202 2.5 12.5348V11.3973ZM6.10996 7.43589L7.64308 8.9927L7.64308 3.34223C7.64308 2.87708 8.01442 2.5 8.47249 2.5C8.93056 2.5 9.3019 2.87708 9.3019 3.34223L9.3019 8.9927L10.835 7.43589C11.1589 7.10698 11.6841 7.10698 12.008 7.43589C12.3319 7.76479 12.3319 8.29806 12.008 8.62697L9.84095 10.8275C9.08517 11.595 7.85981 11.5949 7.10404 10.8275L4.937 8.62697C4.6131 8.29806 4.6131 7.76479 4.937 7.43589C5.26091 7.10698 5.78606 7.10698 6.10996 7.43589Z" fill="white"/>
</g>
</svg>
