<svg width="125" height="41" viewBox="0 0 125 41" fill="none" xmlns="http://www.w3.org/2000/svg">
<g clip-path="url(#clip0_2931_6247)">
<path d="M45.7417 15.8366V19.9355H51.2313V22.5385H45.7417V26.873H51.9305V29.5471H42.4697V13.168H51.9305V15.8421H45.7417V15.8366Z" fill="white"/>
<path d="M55.8086 29.1856C54.9674 28.802 54.301 28.2814 53.8094 27.6238C53.3178 26.9662 53.0501 26.2429 53.001 25.4428H56.2948C56.3548 25.9415 56.6007 26.358 57.0322 26.6868C57.4582 27.0155 57.9935 27.1799 58.6326 27.1799C59.2717 27.1799 59.7415 27.0539 60.0911 26.8073C60.4407 26.5552 60.6155 26.2374 60.6155 25.8483C60.6155 25.4264 60.4024 25.1086 59.9709 24.9003C59.5449 24.6866 58.8621 24.4565 57.928 24.2099C56.9612 23.9742 56.1691 23.7331 55.5573 23.4865C54.9401 23.2345 54.4103 22.8509 53.9678 22.3358C53.5254 21.8207 53.3014 21.1247 53.3014 20.248C53.3014 19.5301 53.509 18.8725 53.9186 18.2807C54.3338 17.6889 54.9237 17.2176 55.6939 16.8724C56.4641 16.5272 57.3708 16.3573 58.4141 16.3573C59.9545 16.3573 61.1835 16.7464 62.1067 17.519C63.0244 18.2917 63.5324 19.3383 63.6252 20.648H60.4953C60.4461 20.1329 60.2331 19.7219 59.8507 19.415C59.4684 19.1082 58.9604 18.9602 58.3213 18.9602C57.7314 18.9602 57.2725 19.0698 56.9557 19.289C56.6389 19.5082 56.475 19.8151 56.475 20.2041C56.475 20.6425 56.6935 20.9768 57.1305 21.2015C57.5675 21.4261 58.2448 21.6563 59.1625 21.8919C60.0965 22.1275 60.8667 22.3687 61.4731 22.6207C62.0794 22.8728 62.6038 23.2564 63.0517 23.7825C63.4941 24.3085 63.7235 24.999 63.7399 25.8593C63.7399 26.61 63.5324 27.2786 63.1227 27.8759C62.7075 28.4677 62.1176 28.9335 61.3474 29.2678C60.5772 29.602 59.6759 29.7719 58.649 29.7719C57.6221 29.7719 56.6389 29.5801 55.7977 29.1965L55.8086 29.1856Z" fill="white"/>
<path d="M69.6612 19.2615V25.5414C69.6612 25.9798 69.765 26.2976 69.978 26.4894C70.1856 26.6867 70.5407 26.7853 71.0432 26.7853H72.5617V29.5526H70.5079C67.7494 29.5526 66.3729 28.2101 66.3729 25.5195V19.2615H64.8325V16.5655H66.3729V13.168H69.6667V16.5655H72.5617V19.2615H69.6667H69.6612Z" fill="white"/>
<path d="M74.4133 19.5191C74.9377 18.5054 75.6424 17.7218 76.5382 17.1738C77.434 16.6258 78.4336 16.3518 79.5425 16.3518C80.5093 16.3518 81.3505 16.5491 82.077 16.9381C82.8035 17.3272 83.3825 17.8204 83.8195 18.4122V16.56H87.1133V29.5417H83.8195V27.6457C83.3989 28.254 82.8199 28.7581 82.077 29.1581C81.3396 29.5582 80.482 29.7554 79.5206 29.7554C78.4282 29.7554 77.4395 29.476 76.5437 28.9115C75.6478 28.3471 74.9377 27.558 74.4188 26.5333C73.8944 25.5086 73.6377 24.3359 73.6377 23.0043C73.6377 21.6727 73.8999 20.5274 74.4188 19.5137L74.4133 19.5191ZM83.3497 21.0097C83.0384 20.4398 82.6178 20.0014 82.0879 19.7C81.5581 19.3931 80.99 19.2451 80.3837 19.2451C79.7774 19.2451 79.2147 19.3931 78.7013 19.689C78.1878 19.9849 77.7727 20.4178 77.4504 20.9877C77.1336 21.5576 76.9697 22.2317 76.9697 23.0153C76.9697 23.7989 77.1281 24.4784 77.4504 25.0647C77.7672 25.6511 78.1878 26.1004 78.7122 26.4128C79.2366 26.7251 79.7883 26.884 80.3837 26.884C80.9791 26.884 81.5581 26.7306 82.0879 26.4292C82.6178 26.1223 83.0384 25.6894 83.3497 25.1195C83.6611 24.5496 83.8195 23.8646 83.8195 23.0701C83.8195 22.2755 83.6611 21.5905 83.3497 21.0206V21.0097Z" fill="white"/>
<path d="M92.9742 19.2615V25.5414C92.9742 25.9798 93.078 26.2976 93.291 26.4894C93.4986 26.6867 93.8537 26.7853 94.3562 26.7853H95.8747V29.5526H93.8209C91.0624 29.5526 89.6859 28.2101 89.6859 25.5195V19.2615H88.1455V16.5655H89.6859V13.168H92.9797V16.5655H95.8747V19.2615H92.9797H92.9742Z" fill="white"/>
<path d="M109.585 24.04H100.125C100.201 24.977 100.529 25.7113 101.108 26.2428C101.681 26.7744 102.391 27.0374 103.233 27.0374C104.445 27.0374 105.314 26.5113 105.827 25.4647H109.356C108.985 26.7141 108.264 27.7443 107.209 28.5444C106.15 29.3499 104.85 29.7499 103.309 29.7499C102.064 29.7499 100.944 29.4705 99.9553 28.917C98.9666 28.3635 98.1964 27.5799 97.6447 26.5607C97.093 25.5469 96.8145 24.3742 96.8145 23.0426C96.8145 21.711 97.0876 20.5219 97.6338 19.5027C98.18 18.4889 98.9393 17.7053 99.9225 17.1573C100.906 16.6093 102.031 16.3353 103.309 16.3353C104.587 16.3353 105.642 16.5984 106.614 17.1299C107.586 17.6614 108.345 18.4177 108.881 19.3931C109.416 20.3685 109.689 21.4918 109.689 22.7577C109.689 23.2289 109.656 23.6509 109.596 24.0235L109.585 24.04ZM106.292 21.8371C106.275 20.9932 105.975 20.3192 105.379 19.8095C104.789 19.2999 104.063 19.0478 103.205 19.0478C102.397 19.0478 101.714 19.2944 101.162 19.7876C100.611 20.2808 100.272 20.9658 100.146 21.8371H106.292Z" fill="white"/>
<path d="M121.242 29.5472L117.713 24.04L114.512 29.5472H110.82L115.96 21.3001L110.749 13.1899H114.512L118.041 18.6752L121.22 13.1899H124.912L119.794 21.4151L125.005 29.5472H121.242Z" fill="white"/>
<path d="M0 11.6446L11.4053 8.46082V33.1419L0 36.2216V11.6446Z" fill="#F4F4F4"/>
<path d="M12.2028 3.28241L23.0128 0L11.4053 8.55948L0 11.6446L12.2028 3.28241Z" fill="white"/>
<path d="M24.5041 35.7229L24.4058 16.3189L35.7128 13.0365V37.8162L24.5041 35.7284V35.7229Z" fill="white"/>
<path d="M24.4004 16.3189L35.7074 13.0365V29.454L24.4004 16.3189Z" fill="#F2F2F2"/>
<path d="M14.8794 5.973L23.0128 0L35.7073 13.0365L24.4002 16.3189L14.8794 5.973Z" fill="#E4E4E4"/>
<path d="M11.4053 33.1365L0 36.2216L24.4002 41L35.7073 37.8162L11.4053 33.1365Z" fill="#EBEBEB"/>
</g>
<defs>
<clipPath id="clip0_2931_6247">
<rect width="125" height="41" fill="white"/>
</clipPath>
</defs>
</svg>
