<svg width="49" height="73" viewBox="0 0 49 73" fill="none" xmlns="http://www.w3.org/2000/svg">
<path d="M0.896 21.696C1.152 14.848 3.392 9.568 7.616 5.856C11.84 2.144 17.568 0.287996 24.8 0.287996C29.6 0.287996 33.696 1.12 37.088 2.784C40.544 4.448 43.136 6.72 44.864 9.6C46.656 12.48 47.552 15.712 47.552 19.296C47.552 23.52 46.496 26.976 44.384 29.664C42.272 32.288 39.808 34.08 36.992 35.04V35.424C40.64 36.64 43.52 38.656 45.632 41.472C47.744 44.288 48.8 47.904 48.8 52.32C48.8 56.288 47.872 59.808 46.016 62.88C44.224 65.888 41.568 68.256 38.048 69.984C34.592 71.712 30.464 72.576 25.664 72.576C17.984 72.576 11.84 70.688 7.232 66.912C2.688 63.136 0.288 57.44 0.0320003 49.824H15.968C16.032 52.64 16.832 54.88 18.368 56.544C19.904 58.144 22.144 58.944 25.088 58.944C27.584 58.944 29.504 58.24 30.848 56.832C32.256 55.36 32.96 53.44 32.96 51.072C32.96 48 31.968 45.792 29.984 44.448C28.064 43.04 24.96 42.336 20.672 42.336H17.6V28.992H20.672C23.936 28.992 26.56 28.448 28.544 27.36C30.592 26.208 31.616 24.192 31.616 21.312C31.616 19.008 30.976 17.216 29.696 15.936C28.416 14.656 26.656 14.016 24.416 14.016C21.984 14.016 20.16 14.752 18.944 16.224C17.792 17.696 17.12 19.52 16.928 21.696H0.896Z" fill="url(#paint0_linear_2964_9477)"/>
<defs>
<linearGradient id="paint0_linear_2964_9477" x1="25" y1="19.5" x2="45.5" y2="72" gradientUnits="userSpaceOnUse">
<stop stop-color="#0D4C60"/>
<stop offset="1" stop-color="#0D4C60" stop-opacity="0"/>
</linearGradient>
</defs>
</svg>
