<svg width="49" height="72" viewBox="0 0 49 72" fill="none" xmlns="http://www.w3.org/2000/svg">
<path d="M0.744 58.848C2.92 57.12 3.912 56.32 3.72 56.448C9.992 51.264 14.92 47.008 18.504 43.68C22.152 40.352 25.224 36.864 27.72 33.216C30.216 29.568 31.464 26.016 31.464 22.56C31.464 19.936 30.856 17.888 29.64 16.416C28.424 14.944 26.6 14.208 24.168 14.208C21.736 14.208 19.816 15.136 18.408 16.992C17.064 18.784 16.392 21.344 16.392 24.672H0.552C0.68 19.232 1.832 14.688 4.008 11.04C6.248 7.392 9.16 4.704 12.744 2.976C16.392 1.248 20.424 0.383995 24.84 0.383995C32.456 0.383995 38.184 2.33599 42.024 6.23999C45.928 10.144 47.88 15.232 47.88 21.504C47.88 28.352 45.544 34.72 40.872 40.608C36.2 46.432 30.248 52.128 23.016 57.696H48.936V71.04H0.744V58.848Z" fill="url(#paint0_linear_2964_9472)"/>
<defs>
<linearGradient id="paint0_linear_2964_9472" x1="24" y1="19.5" x2="52" y2="72" gradientUnits="userSpaceOnUse">
<stop stop-color="#0D4C60"/>
<stop offset="1" stop-color="#0D4C60" stop-opacity="0"/>
</linearGradient>
</defs>
</svg>
