<svg width="191" height="163" viewBox="0 0 191 163" fill="none" xmlns="http://www.w3.org/2000/svg">
<g clip-path="url(#clip0_7015_14084)">
<path d="M191 85.6053C190.757 85.6913 190.668 85.8932 190.683 86.1212C190.783 87.4672 190.44 88.7758 190.19 90.0658C189.857 91.7894 189.405 93.4943 188.868 95.1805C188.214 97.2332 187.441 99.2223 186.523 101.159C184.898 104.595 182.829 107.743 180.413 110.678C178.427 113.09 176.22 115.273 173.777 117.199C170.592 119.708 167.149 121.801 163.396 123.398C161.043 124.4 158.646 125.234 156.181 125.847C154.616 126.236 153.022 126.699 151.39 126.677C150.408 126.662 149.945 127.133 149.609 127.922C147.939 131.825 145.732 135.415 143.275 138.866C142.166 140.425 140.53 140.533 139.38 139.864C137.823 138.959 137.517 137.269 138.641 135.729C140.445 133.253 142.058 130.67 143.443 127.937C143.749 127.335 143.787 127.069 142.984 127.051C140.855 127.006 138.764 126.58 136.662 126.288C136.079 126.206 135.732 126.419 135.474 126.882C132.644 131.934 128.887 136.185 124.387 139.808C120.626 142.832 116.53 145.248 111.996 146.93C110.006 147.671 107.982 148.246 105.928 148.792C100.887 150.138 95.7595 150.078 90.6398 149.764C88.3208 149.622 86.0017 149.099 83.7201 148.467C81.4048 147.824 79.1716 147.009 76.946 146.13C74.8211 145.289 74.2946 142.933 75.9078 141.281C76.9833 140.178 78.0364 139.049 79.1679 138.006C79.6459 137.564 79.3471 137.467 79.0297 137.321C78.8393 137.235 78.6115 137.217 78.3986 137.202C76.7966 137.093 75.1871 136.985 73.5851 136.891C70.9262 136.734 68.2748 136.432 65.6123 136.308C64.014 136.233 62.4082 136.073 60.8024 135.979C60.2087 135.945 60.0033 136.08 60.0033 136.727C60.0033 139.34 60.3991 141.924 60.5448 144.522C60.6269 145.966 60.6195 147.443 60.8585 148.871C61.1572 150.662 61.1236 152.456 61.2282 154.251C61.2356 154.374 61.2506 154.502 61.2842 154.617C61.553 155.612 61.568 155.612 62.3223 154.853C63.4725 153.694 64.5891 152.501 65.784 151.395C67.106 150.172 68.0769 149.985 69.7088 150.875C72.7822 152.554 75.99 153.963 79.3285 154.984C81.6176 155.683 83.9703 156.206 86.3453 156.659C90.9945 157.549 95.6587 157.463 100.323 157.25C102.384 157.156 104.449 156.745 106.496 156.3C108.609 155.84 110.712 155.335 112.743 154.636C115.955 153.526 119.073 152.165 122.019 150.441C125.074 148.658 127.961 146.65 130.634 144.328C131.538 143.543 132.718 143.595 133.719 143.98C134.72 144.365 135.258 145.401 135.273 146.441C135.287 147.286 134.888 148.116 134.16 148.721C130.493 151.772 126.59 154.453 122.326 156.621C119.555 158.031 116.702 159.239 113.763 160.196C111.634 160.891 109.427 161.37 107.231 161.875C101.611 163.165 95.9313 163.101 90.2514 162.839C88.1564 162.742 86.0615 162.312 83.9815 161.901C82.1815 161.546 80.4002 161.131 78.6526 160.618C76.7742 160.069 74.9182 159.429 73.1071 158.659C71.6768 158.05 70.2466 157.444 68.8835 156.696C68.4354 156.449 68.245 156.842 68.0471 157.033C66.9902 158.053 65.9857 159.127 64.9364 160.158C61.8518 163.187 57.2175 161.673 56.0337 157.743C55.7088 156.663 55.8582 155.477 55.6677 154.337C55.4026 152.759 55.4138 151.125 55.3242 149.525C55.1711 146.833 54.9134 144.141 54.7342 141.453C54.5848 139.195 54.4093 136.94 54.4242 134.678C54.4354 132.88 56.6163 130.446 58.5992 130.382C60.7875 130.315 62.9721 130.285 65.138 130.707C65.2575 130.73 65.3845 130.741 65.5077 130.737C68.1516 130.655 70.7656 131.074 73.3871 131.249C76.1282 131.433 78.8804 131.571 81.6064 131.934C83.1151 132.136 84.986 133.99 85.4565 135.4C86.3378 138.05 85.2735 139.976 83.3952 141.673C83.2234 141.83 83.074 142.014 82.9097 142.189C83.5035 142.814 84.3437 142.859 85.0719 143.064C89.9564 144.448 94.9641 144.504 99.9681 144.16C101.686 144.04 103.407 143.636 105.11 143.218C107.175 142.705 109.181 142.059 111.149 141.262C114.592 139.868 117.732 137.957 120.656 135.669C123.304 133.597 125.634 131.223 127.666 128.55C128.442 127.526 129.152 126.452 129.891 125.406C130.481 124.568 130.022 124.329 129.428 124.131C128.226 123.731 127.106 123.166 125.955 122.654C122.65 121.184 119.667 119.214 116.859 116.963C112.28 113.299 108.557 108.869 105.685 103.769C104.02 100.811 102.676 97.6968 101.776 94.3916C101.115 91.9688 100.614 89.5348 100.252 87.0447C99.7889 83.8443 99.886 80.6513 100.058 77.4695C100.166 75.5028 100.558 73.5287 100.995 71.577C101.637 68.7243 102.541 65.9837 103.676 63.3029C104.968 60.2557 106.626 57.4179 108.557 54.7371C111.16 51.1291 114.245 47.9772 117.77 45.2778C121.041 42.7727 124.581 40.7462 128.42 39.1984C130.478 38.3683 132.573 37.6654 134.701 37.1382C136.501 36.6933 138.368 36.4465 140.224 36.1886C142.614 35.8521 144.989 35.9231 147.372 35.9306C149.99 35.9418 152.555 36.4166 155.121 36.9513C158.582 37.6729 161.861 38.8469 165.058 40.3462C168.489 41.9576 171.63 44.0103 174.547 46.4144C179.136 50.1944 182.792 54.7596 185.623 59.9678C186.945 62.4018 188.001 64.9667 188.819 67.6325C189.734 70.6273 190.507 73.6334 190.679 76.774C190.694 77.0246 190.694 77.2825 191.004 77.376V85.5941L191 85.6053ZM145.449 41.5202C123.614 41.3893 105.521 59.4518 105.499 81.4402C105.48 103.514 123.565 121.51 145.434 121.491C167.545 121.469 185.391 103.473 185.399 81.5037C185.402 59.5304 167.563 41.4641 145.449 41.5202Z" fill="#00EDFF"/>
<path d="M108.176 20.7882C106.933 19.9918 105.6 19.846 104.345 19.5356C100.121 18.4925 95.8081 18.5635 91.5099 18.7841C89.6278 18.8813 87.7681 19.3337 85.9084 19.7413C84.2653 20.1039 82.7416 20.8555 81.0575 21.0536C79.0969 21.2817 77.7227 19.8609 77.9505 17.9728C78.0849 16.8661 78.7198 16.1407 79.7094 15.7743C82.0209 14.9256 84.3997 14.3423 86.8121 13.8189C91.2933 12.8468 95.8118 12.9851 100.315 13.2282C102.145 13.3254 103.994 13.7329 105.82 14.1629C108.636 14.8247 111.335 15.7631 114.002 16.8549C116.138 17.7298 116.698 20.0479 115.1 21.6967C114.028 22.8034 112.971 23.9288 111.832 24.9607C111.294 25.4468 111.675 25.5328 112 25.6973C112.131 25.7646 112.303 25.7833 112.452 25.7758C114.816 25.6861 117.146 26.1235 119.495 26.2394C122.983 26.4114 126.456 26.8526 129.951 27.0059C130.773 27.0433 130.986 26.8676 130.971 26.0114C130.93 23.4951 130.601 21.0013 130.444 18.4925C130.246 15.3444 129.869 12.2037 129.764 9.04809C129.746 8.51343 129.708 7.818 129.309 7.63106C128.976 7.47402 128.625 8.15824 128.297 8.47978C127.281 9.47432 126.31 10.5175 125.283 11.5008C124.107 12.6262 122.994 13.0674 121.295 12.1102C118.935 10.7829 116.459 9.65753 113.908 8.75646C112.06 8.10589 110.152 7.58993 108.251 7.0777C102.283 5.46251 96.2151 5.41764 90.1356 5.7504C88.2348 5.85509 86.3229 6.23645 84.4296 6.66269C82.7304 7.04405 81.0351 7.44785 79.3807 7.96008C77.5173 8.53586 75.7024 9.2799 73.9025 10.0501C69.7686 11.8186 65.9894 14.1629 62.4455 16.8923C59.4543 19.1954 56.7693 21.8313 54.3383 24.7289C51.6682 27.9107 49.4127 31.3617 47.5157 35.0557C47.2132 35.6465 47.1982 35.9269 48.0049 35.9418C50.1334 35.9792 52.2247 36.4017 54.3271 36.7008C54.9171 36.7868 55.2532 36.5475 55.5071 36.0951C58.3004 31.0626 62.0758 26.8676 66.4973 23.2259C67.2778 22.5828 68.0769 21.9846 69.018 21.5322C70.0188 21.0536 72.1137 22.1342 72.3341 23.3231C72.588 24.6915 72.3191 25.8244 71.0606 26.7666C67.0313 29.7876 63.648 33.4368 61.0004 37.7477C60.6904 38.2524 60.7203 38.417 61.2767 38.6375C63.6368 39.5797 65.967 40.6042 68.1628 41.8978C72.9427 44.7095 77.1327 48.1979 80.6579 52.5088C83.0591 55.4475 85.0831 58.5994 86.715 62.0167C87.7046 64.0843 88.4813 66.223 89.1759 68.4065C89.7809 70.3021 90.2327 72.2426 90.524 74.1868C90.819 76.1347 91.1364 78.1051 91.0393 80.1054C90.9572 81.7505 91.1178 83.4143 90.9572 85.0519C90.7481 87.1831 90.4381 89.3031 89.9751 91.4118C89.5381 93.3822 89.0116 95.3189 88.3207 97.1921C87.305 99.9402 86.0167 102.572 84.4893 105.092C81.991 109.22 78.9102 112.843 75.2879 115.999C72.0204 118.844 68.3906 121.143 64.4546 122.972C62.2551 123.992 59.9846 124.822 57.6656 125.473C56.2951 125.858 54.8611 126.094 53.4533 126.378C49.7451 127.126 46.007 127.204 42.2727 126.987C40.1105 126.864 37.9558 126.505 35.8197 126.023C33.8555 125.581 31.9099 125.058 30.0352 124.377C27.4735 123.443 25.0051 122.269 22.6338 120.878C18.6045 118.511 15.0195 115.628 11.8826 112.177C8.41719 108.368 5.66498 104.109 3.63724 99.3569C2.61403 96.9565 1.78501 94.4963 1.17631 91.9801C0.724458 90.1069 0.492929 88.1739 0.238994 86.2521C-0.044815 84.0761 -0.0373463 81.915 0.00373136 79.7502C0.056012 77.133 0.489195 74.5532 1.012 71.9808C1.66924 68.7542 2.71859 65.6808 4.05548 62.6823C5.73593 58.906 7.94293 55.4737 10.5794 52.2957C13.6453 48.6017 17.2041 45.4909 21.2558 42.9298C23.8475 41.2921 26.5735 39.9536 29.4415 38.8507C31.7456 37.9646 34.1094 37.3065 36.4994 36.7719C37.4964 36.5475 38.5309 36.1811 39.5914 36.3045C40.5885 36.4204 41.0254 35.8446 41.3577 35.0669C43.0233 31.1374 45.2041 27.5107 47.7285 24.0821C49.8646 21.177 52.2135 18.4476 54.8686 16.0024C59.4431 11.7887 64.4882 8.27788 70.1308 5.61954C72.7822 4.37076 75.4896 3.27153 78.2829 2.43028C79.9932 1.91431 81.7595 1.53295 83.5109 1.12915C88.8622 -0.0972004 94.2621 -0.0934615 99.6731 0.0860045C102.16 0.16826 104.61 0.639358 107.06 1.10672C109.222 1.51799 111.347 2.04144 113.434 2.7107C116.123 3.57438 118.804 4.49788 121.269 5.88874C122.202 6.41592 122.744 6.23645 123.394 5.54476C124.376 4.49414 125.369 3.44725 126.445 2.49758C129.238 0.0299214 133.432 1.39835 134.724 4.61752C135.239 5.89996 135.183 7.24595 135.276 8.52091C135.452 10.9587 135.698 13.4001 135.829 15.8454C136.027 19.5543 136.456 23.2483 136.613 26.9648C136.718 29.511 135.691 31.2832 133.405 32.3712C132.741 32.6853 131.99 32.7638 131.337 32.7114C130.127 32.6142 128.917 32.6516 127.711 32.5432C124.137 32.2216 120.556 31.9824 116.978 31.7057C115.499 31.5898 113.998 31.6346 112.545 31.3767C110.94 31.0925 109.222 31.3355 107.743 30.3485C105.051 28.5501 104.337 25.0505 106.455 22.4893C106.944 21.8949 107.556 21.4013 108.18 20.7956L108.176 20.7882ZM85.449 81.5299C85.632 59.5117 67.4906 41.509 45.6336 41.4978C23.5188 41.4866 5.62017 59.4556 5.58656 81.429C5.55295 103.473 23.4778 121.457 45.5327 121.487C67.4234 121.521 85.5835 103.548 85.449 81.5299Z" fill="#00EDFF"/>
<path d="M145.467 48.9942C163.426 48.9531 177.926 63.6955 177.926 81.4888C177.926 99.3494 163.385 114.013 145.404 114.01C127.628 114.01 112.941 99.3718 112.979 81.414C113.016 63.5609 127.688 48.9007 145.467 48.9942ZM118.606 81.4776C118.423 96.2648 130.776 108.42 145.404 108.412C160.293 108.405 172.317 96.276 172.332 81.5262C172.347 66.7576 160.319 54.6138 145.452 54.5838C130.784 54.5539 118.442 66.7277 118.606 81.4776Z" fill="#00EDFF"/>
<path d="M77.9542 81.7206C78.1895 83.4741 77.8721 85.4221 77.5173 87.3252C76.707 91.6697 75.0975 95.7302 72.6478 99.4242C69.6528 103.941 65.7392 107.493 61.0116 110.099C58.7411 111.351 56.3138 112.263 53.7782 112.929C50.4621 113.796 47.1124 114.152 43.7067 113.972C41.1337 113.834 38.6317 113.303 36.1484 112.574C31.9286 111.332 28.1681 109.261 24.8072 106.487C20.5986 103.01 17.4356 98.6951 15.3892 93.6401C14.5975 91.681 13.7685 89.6694 13.7648 87.4785C13.7648 86.3119 14.7544 85.0519 15.7925 84.8837C17.275 84.6444 18.5933 85.2389 19.0489 86.6559C19.7322 88.7871 20.2326 90.9781 21.2372 93.0008C23.0969 96.7471 25.5765 99.9701 28.9 102.55C30.5655 103.84 32.2945 104.984 34.2215 105.848C35.9878 106.644 37.7877 107.265 39.6811 107.717C42.142 108.304 44.6178 108.51 47.1161 108.375C49.8384 108.225 52.4562 107.597 55.0292 106.644C59.6299 104.943 63.3605 102.101 66.4488 98.3511C68.4317 95.9433 69.8433 93.2289 70.915 90.2938C72.3154 86.469 72.6739 82.5282 72.2743 78.55C71.8598 74.4074 70.4706 70.5152 68.189 67.0081C65.967 63.5945 63.1327 60.7717 59.6523 58.6256C57.5722 57.3431 55.3578 56.3897 53.0126 55.6793C50.0214 54.7783 46.9854 54.4343 43.8971 54.6437C41.552 54.8044 39.2553 55.2568 37.0073 56.0271C34.4007 56.9206 32.0033 58.1545 29.7739 59.7622C26.1926 62.3495 23.4292 65.6247 21.4538 69.5618C20.5015 71.4611 19.7696 73.4465 19.3588 75.544C18.8397 78.1948 16.6439 78.8604 14.8066 77.7275C13.4474 76.89 13.5482 75.4318 13.8619 74.1681C14.5042 71.5845 15.4079 69.0832 16.6327 66.6941C19.3924 61.3176 23.3695 57.0814 28.4482 53.8809C30.8195 52.3854 33.3812 51.2862 36.0699 50.4262C40.0732 49.1475 44.1548 48.7549 48.2924 49.0802C50.5629 49.2559 52.8072 49.7495 55.018 50.4225C58.9876 51.6301 62.5389 53.5594 65.784 56.1056C69.9553 59.3771 73.0436 63.516 75.2319 68.3055C76.1618 70.3395 76.8153 72.4931 77.2709 74.7139C77.7302 76.9685 78.0364 79.2118 77.943 81.7243L77.9542 81.7206Z" fill="#00EDFF"/>
<path d="M31.3236 95.7563C31.4954 94.7506 31.7194 93.4569 31.9547 92.1595C32.1339 91.165 32.3207 90.163 32.4439 89.1572C32.4663 88.974 32.4103 88.7534 32.4887 88.6039C33.1758 87.3102 32.2721 86.6821 31.473 85.9231C29.8635 84.3901 28.3287 82.7787 26.7565 81.2084C24.1499 78.6061 25.6847 74.3475 28.8776 73.5923C30.3489 73.2446 31.8427 73.1212 33.3252 72.8894C34.5351 72.7024 35.7376 72.4257 36.955 72.3061C37.9222 72.2126 38.0417 71.405 38.3479 70.8218C39.401 68.8103 40.3569 66.7464 41.3764 64.7162C42.2166 63.0449 43.7029 62.185 45.4618 62.1737C47.2617 62.1625 48.7555 63.0636 49.6069 64.7424C50.7571 67.0044 51.8587 69.2963 52.9827 71.5733C53.3674 72.3547 54.1441 72.437 54.8462 72.4818C57.0009 72.6164 59.1108 73.0838 61.2468 73.3492C63.7264 73.6596 65.601 75.7309 65.5264 78.0453C65.4853 79.3277 64.9961 80.5503 63.9654 81.5112C62.158 83.1974 60.4365 84.9697 58.6589 86.6858C58.2631 87.0672 58.11 87.4672 58.2295 87.9907C58.7224 90.148 58.9278 92.3614 59.4021 94.5075C59.768 96.1713 59.6074 97.551 58.644 98.9119C57.6469 100.318 55.7723 100.998 54.0993 100.632C52.1313 100.202 50.5704 98.9643 48.8115 98.1305C47.792 97.6482 46.8211 97.0537 45.8165 96.534C45.5738 96.4106 45.346 96.4555 45.0585 96.6125C42.7133 97.8763 40.3457 99.1101 37.9707 100.321C35.5621 101.548 32.5447 100.213 31.6485 97.8426C31.4207 97.2407 31.3311 96.6686 31.3199 95.7526L31.3236 95.7563ZM37.3695 93.3074C37.2164 94.2458 37.4927 94.3393 37.9894 94.0664C39.6736 93.1503 41.3316 92.1782 43.0419 91.3183C44.4684 90.6004 45.9809 90.4621 47.4634 91.1837C49.2969 92.0773 51.1193 93.0045 52.9192 93.9654C53.147 94.0888 53.3674 94.2683 53.5653 94.1486C53.8155 94.0028 53.7259 93.6513 53.6138 93.4719C53.3263 93.012 53.4047 92.511 53.3338 92.0287C53.1881 91.0267 53.106 90.0022 52.8446 89.0264C52.2471 86.7942 52.4524 84.8014 54.2151 83.1339C55.5632 81.8552 56.8926 80.5541 58.2444 79.2791C58.5842 78.9613 58.8195 78.651 58.1585 78.55C56.2465 78.2547 54.3271 77.9929 52.4076 77.7649C50.6189 77.5517 49.3119 76.6507 48.4978 75.0729C47.5941 73.3231 46.7352 71.5471 45.895 69.7674C45.7829 69.5319 45.6074 69.4047 45.4394 69.3673C45.1108 69.2888 45.2078 69.6328 45.1145 69.8011C44.3004 71.2854 43.5535 72.8071 42.8664 74.355C42.1196 76.0338 40.9582 77.3349 39.1134 77.6976C37.1566 78.0827 35.1588 78.2509 33.1796 78.5239C32.9331 78.5575 32.597 78.393 32.4775 78.7893C32.3692 79.1557 32.7053 79.2679 32.8771 79.4399C34.2999 80.8681 35.7562 82.2627 37.1828 83.6872C38.5122 85.0145 38.6914 86.6783 38.2993 88.3795C37.9035 90.1144 37.8251 91.9015 37.3807 93.3074H37.3695Z" fill="#00EDFF"/>
<path d="M149.986 87.5757C150.15 85.5193 148.612 84.4238 146.744 83.7358C143.91 82.6927 141.031 81.7131 138.682 79.6979C136.06 77.4508 135.653 74.5943 136.46 71.4088C137.222 68.399 139.108 66.4398 142.002 65.4228C142.588 65.2172 142.51 64.776 142.484 64.3573C142.416 63.2244 142.693 62.2635 143.679 61.5905C145.527 60.3267 147.928 61.5232 147.973 63.4188C148.01 65.0938 148.869 65.3929 150.038 65.8229C151.166 66.2342 152.197 66.8735 153.093 67.6848C154.277 68.7542 154.351 70.2796 153.433 71.4873C152.492 72.7174 150.651 72.8968 149.553 71.9546C148.485 71.0349 147.185 70.6199 145.841 70.3731C143.335 69.9095 141.15 72.2425 141.781 74.7177C142.002 75.5739 142.838 75.8767 143.533 76.2656C145.46 77.3461 147.547 78.049 149.586 78.8716C152.409 80.0119 154.389 81.9337 155.233 84.951C156.652 90.0172 153.896 95.0272 149.332 97.0462C148.212 97.5398 148.051 98.0595 148.066 99.0503C148.089 100.542 146.778 101.899 145.337 101.978C143.985 102.053 142.547 100.707 142.491 99.3195C142.431 97.7566 142.409 97.8501 140.911 97.5211C139.141 97.1285 137.547 96.2872 136.113 95.1544C135.022 94.2944 135.183 92.2717 135.836 91.3744C136.606 90.3163 138.506 90.0134 139.813 90.9444C141.692 92.2829 143.772 92.5334 145.919 92.268C148.07 91.9988 150.038 90.1069 149.978 87.5757H149.986Z" fill="#00EDFF"/>
</g>
<defs>
<clipPath id="clip0_7015_14084">
<rect width="191" height="163" fill="white"/>
</clipPath>
</defs>
</svg>
