<svg width="16" height="16" viewBox="0 0 16 16" fill="none" xmlns="http://www.w3.org/2000/svg">
<g id="Icon pack Variants">
<path id="Union" fill-rule="evenodd" clip-rule="evenodd" d="M2.17298 7.17058C1.7149 7.17058 1.34356 7.54192 1.34356 8C1.34356 8.45808 1.7149 8.82942 2.17298 8.82942L7.24165 8.82942L7.24165 13.8981C7.24165 14.3562 7.61299 14.7275 8.07107 14.7275C8.52914 14.7275 8.90049 14.3562 8.90049 13.8981L8.90049 8.82942L13.9692 8.82942C14.4272 8.82942 14.7986 8.45808 14.7986 8C14.7986 7.54192 14.4272 7.17058 13.9692 7.17058L8.90049 7.17058L8.90049 2.10191C8.90049 1.64383 8.52914 1.27249 8.07107 1.27249C7.61299 1.27249 7.24165 1.64383 7.24165 2.10191L7.24165 7.17058L2.17298 7.17058Z" fill="white"/>
</g>
</svg>
